STARTFONT 2.1
FONT -FontForge-SG04-Book-R-Normal--8-80-75-75-P-38-ISO10646-1
SIZE 8 75 75
FONTBOUNDINGBOX 5 7 0 -1
COMMENT "Generated by fontforge, http://fontforge.sourceforge.net"
COMMENT "(C) 2000 SHAKAGRAPHICS"
STARTPROPERTIES 39
FOUNDRY "FontForge"
FAMILY_NAME "SG04"
WEIGHT_NAME "Book"
SLANT "R"
SETWIDTH_NAME "Normal"
ADD_STYLE_NAME ""
PIXEL_SIZE 8
POINT_SIZE 80
RESOLUTION_X 75
RESOLUTION_Y 75
SPACING "P"
AVERAGE_WIDTH 38
CHARSET_REGISTRY "ISO10646"
CHARSET_ENCODING "1"
FONTNAME_REGISTRY ""
CHARSET_COLLECTIONS "ISO10646-1"
FONT_NAME "SHAKAGRAPHICS04"
FACE_NAME "SHAKAGRAPHICS 04"
COPYRIGHT "(C) 2000 SHAKAGRAPHICS"
FONT_VERSION "Macromedia Fontographer 4.1J 5/23/01"
FONT_ASCENT 6
FONT_DESCENT 2
UNDERLINE_POSITION -1
UNDERLINE_THICKNESS 1
X_HEIGHT 2
CAP_HEIGHT 4
RAW_ASCENT 750
RAW_DESCENT 250
NORM_SPACE 3
RELATIVE_WEIGHT 40
RELATIVE_SETWIDTH 50
SUPERSCRIPT_X 0
SUPERSCRIPT_Y 3
SUPERSCRIPT_SIZE 5
SUBSCRIPT_X 0
SUBSCRIPT_Y 1
SUBSCRIPT_SIZE 5
AVG_LOWERCASE_WIDTH 38
AVG_UPPERCASE_WIDTH 40
ENDPROPERTIES
CHARS 104
STARTCHAR space
ENCODING 32
SWIDTH 375 0
DWIDTH 3 0
BBX 1 1 0 0
BITMAP
00
ENDCHAR
STARTCHAR exclam
ENCODING 33
SWIDTH 248 0
DWIDTH 2 0
BBX 1 5 0 0
BITMAP
80
80
80
00
80
ENDCHAR
STARTCHAR quotedbl
ENCODING 34
SWIDTH 498 0
DWIDTH 4 0
BBX 3 2 0 3
BITMAP
A0
A0
ENDCHAR
STARTCHAR numbersign
ENCODING 35
SWIDTH 748 0
DWIDTH 6 0
BBX 5 5 0 0
BITMAP
50
F8
50
F8
50
ENDCHAR
STARTCHAR dollar
ENCODING 36
SWIDTH 498 0
DWIDTH 4 0
BBX 3 7 0 -1
BITMAP
40
E0
80
E0
20
E0
40
ENDCHAR
STARTCHAR percent
ENCODING 37
SWIDTH 748 0
DWIDTH 6 0
BBX 5 5 0 0
BITMAP
C8
90
20
48
98
ENDCHAR
STARTCHAR ampersand
ENCODING 38
SWIDTH 748 0
DWIDTH 6 0
BBX 5 5 0 0
BITMAP
E0
A8
F0
90
E8
ENDCHAR
STARTCHAR quotesingle
ENCODING 39
SWIDTH 251 0
DWIDTH 2 0
BBX 1 2 0 3
BITMAP
80
80
ENDCHAR
STARTCHAR parenleft
ENCODING 40
SWIDTH 374 0
DWIDTH 3 0
BBX 2 5 0 0
BITMAP
40
80
80
80
40
ENDCHAR
STARTCHAR parenright
ENCODING 41
SWIDTH 374 0
DWIDTH 3 0
BBX 2 5 0 0
BITMAP
80
40
40
40
80
ENDCHAR
STARTCHAR asterisk
ENCODING 42
SWIDTH 748 0
DWIDTH 6 0
BBX 5 5 0 0
BITMAP
20
A8
70
A8
20
ENDCHAR
STARTCHAR plus
ENCODING 43
SWIDTH 498 0
DWIDTH 4 0
BBX 3 3 0 1
BITMAP
40
E0
40
ENDCHAR
STARTCHAR comma
ENCODING 44
SWIDTH 374 0
DWIDTH 3 0
BBX 2 2 0 0
BITMAP
40
80
ENDCHAR
STARTCHAR hyphen
ENCODING 45
SWIDTH 498 0
DWIDTH 4 0
BBX 3 1 0 2
BITMAP
E0
ENDCHAR
STARTCHAR period
ENCODING 46
SWIDTH 251 0
DWIDTH 2 0
BBX 1 1 0 0
BITMAP
80
ENDCHAR
STARTCHAR slash
ENCODING 47
SWIDTH 750 0
DWIDTH 6 0
BBX 5 5 0 0
BITMAP
08
10
20
40
80
ENDCHAR
STARTCHAR zero
ENCODING 48
SWIDTH 501 0
DWIDTH 4 0
BBX 3 5 0 0
BITMAP
E0
A0
A0
A0
E0
ENDCHAR
STARTCHAR one
ENCODING 49
SWIDTH 374 0
DWIDTH 3 0
BBX 2 5 0 0
BITMAP
C0
40
40
40
40
ENDCHAR
STARTCHAR two
ENCODING 50
SWIDTH 498 0
DWIDTH 4 0
BBX 3 5 0 0
BITMAP
E0
20
E0
80
E0
ENDCHAR
STARTCHAR three
ENCODING 51
SWIDTH 498 0
DWIDTH 4 0
BBX 3 5 0 0
BITMAP
E0
20
E0
20
E0
ENDCHAR
STARTCHAR four
ENCODING 52
SWIDTH 498 0
DWIDTH 4 0
BBX 3 5 0 0
BITMAP
A0
A0
A0
E0
20
ENDCHAR
STARTCHAR five
ENCODING 53
SWIDTH 501 0
DWIDTH 4 0
BBX 3 5 0 0
BITMAP
E0
80
E0
20
E0
ENDCHAR
STARTCHAR six
ENCODING 54
SWIDTH 498 0
DWIDTH 4 0
BBX 3 5 0 0
BITMAP
E0
80
E0
A0
E0
ENDCHAR
STARTCHAR seven
ENCODING 55
SWIDTH 498 0
DWIDTH 4 0
BBX 3 5 0 0
BITMAP
E0
20
20
20
20
ENDCHAR
STARTCHAR eight
ENCODING 56
SWIDTH 501 0
DWIDTH 4 0
BBX 3 5 0 0
BITMAP
E0
A0
E0
A0
E0
ENDCHAR
STARTCHAR nine
ENCODING 57
SWIDTH 498 0
DWIDTH 4 0
BBX 3 5 0 0
BITMAP
E0
A0
E0
20
E0
ENDCHAR
STARTCHAR colon
ENCODING 58
SWIDTH 248 0
DWIDTH 2 0
BBX 1 3 0 1
BITMAP
80
00
80
ENDCHAR
STARTCHAR semicolon
ENCODING 59
SWIDTH 372 0
DWIDTH 3 0
BBX 2 4 0 0
BITMAP
40
00
40
80
ENDCHAR
STARTCHAR less
ENCODING 60
SWIDTH 498 0
DWIDTH 4 0
BBX 3 5 0 0
BITMAP
20
40
80
40
20
ENDCHAR
STARTCHAR equal
ENCODING 61
SWIDTH 501 0
DWIDTH 4 0
BBX 3 3 0 1
BITMAP
E0
00
E0
ENDCHAR
STARTCHAR greater
ENCODING 62
SWIDTH 498 0
DWIDTH 4 0
BBX 3 5 0 0
BITMAP
80
40
20
40
80
ENDCHAR
STARTCHAR question
ENCODING 63
SWIDTH 498 0
DWIDTH 4 0
BBX 3 5 0 0
BITMAP
E0
20
60
00
40
ENDCHAR
STARTCHAR at
ENCODING 64
SWIDTH 750 0
DWIDTH 6 0
BBX 5 5 0 0
BITMAP
F8
88
B8
A8
F8
ENDCHAR
STARTCHAR A
ENCODING 65
SWIDTH 501 0
DWIDTH 4 0
BBX 3 5 0 0
BITMAP
E0
A0
A0
E0
A0
ENDCHAR
STARTCHAR B
ENCODING 66
SWIDTH 501 0
DWIDTH 4 0
BBX 3 5 0 0
BITMAP
E0
A0
E0
A0
E0
ENDCHAR
STARTCHAR C
ENCODING 67
SWIDTH 501 0
DWIDTH 4 0
BBX 3 5 0 0
BITMAP
E0
80
80
80
E0
ENDCHAR
STARTCHAR D
ENCODING 68
SWIDTH 501 0
DWIDTH 4 0
BBX 3 5 0 0
BITMAP
C0
A0
A0
A0
C0
ENDCHAR
STARTCHAR E
ENCODING 69
SWIDTH 501 0
DWIDTH 4 0
BBX 3 5 0 0
BITMAP
E0
80
E0
80
E0
ENDCHAR
STARTCHAR F
ENCODING 70
SWIDTH 501 0
DWIDTH 4 0
BBX 3 5 0 0
BITMAP
E0
80
E0
80
80
ENDCHAR
STARTCHAR G
ENCODING 71
SWIDTH 501 0
DWIDTH 4 0
BBX 3 5 0 0
BITMAP
E0
80
A0
A0
E0
ENDCHAR
STARTCHAR H
ENCODING 72
SWIDTH 501 0
DWIDTH 4 0
BBX 3 5 0 0
BITMAP
A0
A0
E0
A0
A0
ENDCHAR
STARTCHAR I
ENCODING 73
SWIDTH 501 0
DWIDTH 4 0
BBX 3 5 0 0
BITMAP
E0
40
40
40
E0
ENDCHAR
STARTCHAR J
ENCODING 74
SWIDTH 501 0
DWIDTH 4 0
BBX 3 5 0 0
BITMAP
20
20
20
A0
E0
ENDCHAR
STARTCHAR K
ENCODING 75
SWIDTH 501 0
DWIDTH 4 0
BBX 3 5 0 0
BITMAP
A0
A0
C0
A0
A0
ENDCHAR
STARTCHAR L
ENCODING 76
SWIDTH 501 0
DWIDTH 4 0
BBX 3 5 0 0
BITMAP
80
80
80
80
E0
ENDCHAR
STARTCHAR M
ENCODING 77
SWIDTH 501 0
DWIDTH 4 0
BBX 3 5 0 0
BITMAP
A0
E0
A0
A0
A0
ENDCHAR
STARTCHAR N
ENCODING 78
SWIDTH 501 0
DWIDTH 4 0
BBX 3 5 0 0
BITMAP
E0
A0
A0
A0
A0
ENDCHAR
STARTCHAR O
ENCODING 79
SWIDTH 501 0
DWIDTH 4 0
BBX 3 5 0 0
BITMAP
E0
A0
A0
A0
E0
ENDCHAR
STARTCHAR P
ENCODING 80
SWIDTH 501 0
DWIDTH 4 0
BBX 3 5 0 0
BITMAP
E0
A0
E0
80
80
ENDCHAR
STARTCHAR Q
ENCODING 81
SWIDTH 501 0
DWIDTH 4 0
BBX 3 6 0 -1
BITMAP
E0
A0
A0
A0
E0
40
ENDCHAR
STARTCHAR R
ENCODING 82
SWIDTH 501 0
DWIDTH 4 0
BBX 3 5 0 0
BITMAP
E0
A0
C0
A0
A0
ENDCHAR
STARTCHAR S
ENCODING 83
SWIDTH 501 0
DWIDTH 4 0
BBX 3 5 0 0
BITMAP
E0
80
E0
20
E0
ENDCHAR
STARTCHAR T
ENCODING 84
SWIDTH 501 0
DWIDTH 4 0
BBX 3 5 0 0
BITMAP
E0
40
40
40
40
ENDCHAR
STARTCHAR U
ENCODING 85
SWIDTH 501 0
DWIDTH 4 0
BBX 3 5 0 0
BITMAP
A0
A0
A0
A0
E0
ENDCHAR
STARTCHAR V
ENCODING 86
SWIDTH 501 0
DWIDTH 4 0
BBX 3 5 0 0
BITMAP
A0
A0
A0
A0
40
ENDCHAR
STARTCHAR W
ENCODING 87
SWIDTH 501 0
DWIDTH 4 0
BBX 3 5 0 0
BITMAP
A0
A0
A0
E0
A0
ENDCHAR
STARTCHAR X
ENCODING 88
SWIDTH 501 0
DWIDTH 4 0
BBX 3 5 0 0
BITMAP
A0
A0
40
A0
A0
ENDCHAR
STARTCHAR Y
ENCODING 89
SWIDTH 501 0
DWIDTH 4 0
BBX 3 5 0 0
BITMAP
A0
A0
A0
40
40
ENDCHAR
STARTCHAR Z
ENCODING 90
SWIDTH 501 0
DWIDTH 4 0
BBX 3 5 0 0
BITMAP
E0
20
40
80
E0
ENDCHAR
STARTCHAR bracketleft
ENCODING 91
SWIDTH 374 0
DWIDTH 3 0
BBX 2 5 0 0
BITMAP
C0
80
80
80
C0
ENDCHAR
STARTCHAR backslash
ENCODING 92
SWIDTH 750 0
DWIDTH 6 0
BBX 5 5 0 0
BITMAP
80
40
20
10
08
ENDCHAR
STARTCHAR bracketright
ENCODING 93
SWIDTH 374 0
DWIDTH 3 0
BBX 2 5 0 0
BITMAP
C0
40
40
40
C0
ENDCHAR
STARTCHAR asciicircum
ENCODING 94
SWIDTH 498 0
DWIDTH 4 0
BBX 3 2 0 3
BITMAP
40
A0
ENDCHAR
STARTCHAR underscore
ENCODING 95
SWIDTH 373 0
DWIDTH 3 0
BBX 3 1 0 0
BITMAP
E0
ENDCHAR
STARTCHAR grave
ENCODING 96
SWIDTH 374 0
DWIDTH 3 0
BBX 2 2 0 3
BITMAP
80
40
ENDCHAR
STARTCHAR a
ENCODING 97
SWIDTH 501 0
DWIDTH 4 0
BBX 3 3 0 0
BITMAP
60
A0
E0
ENDCHAR
STARTCHAR b
ENCODING 98
SWIDTH 501 0
DWIDTH 4 0
BBX 3 5 0 0
BITMAP
80
80
E0
A0
E0
ENDCHAR
STARTCHAR c
ENCODING 99
SWIDTH 498 0
DWIDTH 4 0
BBX 3 3 0 0
BITMAP
E0
80
E0
ENDCHAR
STARTCHAR d
ENCODING 100
SWIDTH 501 0
DWIDTH 4 0
BBX 3 5 0 0
BITMAP
20
20
E0
A0
E0
ENDCHAR
STARTCHAR e
ENCODING 101
SWIDTH 498 0
DWIDTH 4 0
BBX 3 3 0 0
BITMAP
E0
A0
C0
ENDCHAR
STARTCHAR f
ENCODING 102
SWIDTH 498 0
DWIDTH 4 0
BBX 3 5 0 0
BITMAP
60
40
E0
40
40
ENDCHAR
STARTCHAR g
ENCODING 103
SWIDTH 498 0
DWIDTH 4 0
BBX 3 4 0 -1
BITMAP
E0
A0
E0
40
ENDCHAR
STARTCHAR h
ENCODING 104
SWIDTH 498 0
DWIDTH 4 0
BBX 3 5 0 0
BITMAP
80
80
E0
A0
A0
ENDCHAR
STARTCHAR i
ENCODING 105
SWIDTH 251 0
DWIDTH 2 0
BBX 1 5 0 0
BITMAP
80
00
80
80
80
ENDCHAR
STARTCHAR j
ENCODING 106
SWIDTH 374 0
DWIDTH 3 0
BBX 2 5 0 0
BITMAP
40
00
40
40
C0
ENDCHAR
STARTCHAR k
ENCODING 107
SWIDTH 498 0
DWIDTH 4 0
BBX 3 5 0 0
BITMAP
80
80
A0
C0
A0
ENDCHAR
STARTCHAR l
ENCODING 108
SWIDTH 249 0
DWIDTH 2 0
BBX 1 5 0 0
BITMAP
80
80
80
80
80
ENDCHAR
STARTCHAR m
ENCODING 109
SWIDTH 498 0
DWIDTH 4 0
BBX 3 3 0 0
BITMAP
A0
E0
A0
ENDCHAR
STARTCHAR n
ENCODING 110
SWIDTH 498 0
DWIDTH 4 0
BBX 3 3 0 0
BITMAP
E0
A0
A0
ENDCHAR
STARTCHAR o
ENCODING 111
SWIDTH 501 0
DWIDTH 4 0
BBX 3 3 0 0
BITMAP
E0
A0
E0
ENDCHAR
STARTCHAR p
ENCODING 112
SWIDTH 498 0
DWIDTH 4 0
BBX 3 4 0 -1
BITMAP
E0
A0
E0
80
ENDCHAR
STARTCHAR q
ENCODING 113
SWIDTH 498 0
DWIDTH 4 0
BBX 3 4 0 -1
BITMAP
E0
A0
E0
20
ENDCHAR
STARTCHAR r
ENCODING 114
SWIDTH 498 0
DWIDTH 4 0
BBX 3 3 0 0
BITMAP
E0
80
80
ENDCHAR
STARTCHAR s
ENCODING 115
SWIDTH 498 0
DWIDTH 4 0
BBX 3 3 0 0
BITMAP
80
E0
20
ENDCHAR
STARTCHAR t
ENCODING 116
SWIDTH 498 0
DWIDTH 4 0
BBX 3 4 0 0
BITMAP
40
E0
40
40
ENDCHAR
STARTCHAR u
ENCODING 117
SWIDTH 498 0
DWIDTH 4 0
BBX 3 3 0 0
BITMAP
A0
A0
E0
ENDCHAR
STARTCHAR v
ENCODING 118
SWIDTH 498 0
DWIDTH 4 0
BBX 3 3 0 0
BITMAP
A0
A0
40
ENDCHAR
STARTCHAR w
ENCODING 119
SWIDTH 498 0
DWIDTH 4 0
BBX 3 3 0 0
BITMAP
A0
E0
A0
ENDCHAR
STARTCHAR x
ENCODING 120
SWIDTH 498 0
DWIDTH 4 0
BBX 3 3 0 0
BITMAP
A0
40
A0
ENDCHAR
STARTCHAR y
ENCODING 121
SWIDTH 498 0
DWIDTH 4 0
BBX 3 4 0 -1
BITMAP
A0
A0
E0
20
ENDCHAR
STARTCHAR z
ENCODING 122
SWIDTH 498 0
DWIDTH 4 0
BBX 3 3 0 0
BITMAP
E0
40
E0
ENDCHAR
STARTCHAR braceleft
ENCODING 123
SWIDTH 498 0
DWIDTH 4 0
BBX 3 5 0 0
BITMAP
20
40
C0
40
20
ENDCHAR
STARTCHAR bar
ENCODING 124
SWIDTH 251 0
DWIDTH 2 0
BBX 1 5 0 0
BITMAP
80
80
80
80
80
ENDCHAR
STARTCHAR braceright
ENCODING 125
SWIDTH 497 0
DWIDTH 4 0
BBX 3 5 0 0
BITMAP
80
40
60
40
80
ENDCHAR
STARTCHAR asciitilde
ENCODING 126
SWIDTH 624 0
DWIDTH 5 0
BBX 4 2 0 3
BITMAP
50
A0
ENDCHAR
STARTCHAR nonbreakingspace
ENCODING 160
SWIDTH 375 0
DWIDTH 3 0
BBX 1 1 0 0
BITMAP
00
ENDCHAR
STARTCHAR minus
ENCODING 173
SWIDTH 501 0
DWIDTH 4 0
BBX 3 1 0 2
BITMAP
E0
ENDCHAR
STARTCHAR hyphen.dup1
ENCODING 8208
SWIDTH 498 0
DWIDTH 4 0
BBX 3 1 0 2
BITMAP
E0
ENDCHAR
STARTCHAR endash
ENCODING 8211
SWIDTH 626 0
DWIDTH 5 0
BBX 4 1 0 2
BITMAP
F0
ENDCHAR
STARTCHAR emdash
ENCODING 8212
SWIDTH 625 0
DWIDTH 5 0
BBX 5 1 0 2
BITMAP
F8
ENDCHAR
STARTCHAR minus.dup2
ENCODING 8722
SWIDTH 501 0
DWIDTH 4 0
BBX 3 1 0 2
BITMAP
E0
ENDCHAR
STARTCHAR .notdef
ENCODING -1
SWIDTH 500 0
DWIDTH 4 0
BBX 1 1 0 0
BITMAP
00
ENDCHAR
STARTCHAR .null
ENCODING -1
SWIDTH 0 0
DWIDTH 0 0
BBX 1 1 0 0
BITMAP
00
ENDCHAR
STARTCHAR nonmarkingreturn
ENCODING -1
SWIDTH 375 0
DWIDTH 3 0
BBX 1 1 0 0
BITMAP
00
ENDCHAR
ENDFONT
